<svg width="119" height="98" viewBox="0 0 119 98" fill="none" xmlns="http://www.w3.org/2000/svg">
<path d="M16.7646 55.36L16.2246 58.78C16.1446 61.38 16.4846 63.34 17.2446 64.66C18.0446 65.94 19.4046 66.58 21.3246 66.58C23.2446 66.58 24.8446 65.96 26.1246 64.72C27.4446 63.48 28.9446 61.42 30.6246 58.54L31.8846 55.42C32.4046 54.5 32.9446 53.68 33.5046 52.96C34.0646 52.2 35.0646 51.68 36.5046 51.4L39.3846 50.68C46.9046 49.04 52.7246 46.44 56.8446 42.88C61.0046 39.32 63.7846 34.76 65.1846 29.2C66.3046 24.8 66.1646 20.94 64.7646 17.62C63.4046 14.3 60.7046 11.7 56.6646 9.82C52.6646 7.94 47.2046 7 40.2846 7C34.2846 7 28.7446 8 23.6646 10C18.5846 12 14.3646 14.56 11.0046 17.68C7.64462 20.8 5.48461 24.1 4.52461 27.58C3.56462 31.02 3.76462 33.82 5.12462 35.98C6.48462 38.14 8.72462 39.22 11.8446 39.22C15.6046 39.22 18.7846 38.14 21.3846 35.98C24.0246 33.82 25.8846 30.72 26.9646 26.68L27.9846 22.6C28.5446 20.56 29.5846 19 31.1046 17.92C32.6646 16.84 34.5846 16.3 36.8646 16.3C38.4646 16.3 39.7646 16.76 40.7646 17.68C41.8046 18.56 42.4246 19.9 42.6246 21.7C42.8646 23.5 42.6246 25.78 41.9046 28.54C41.0246 31.82 39.6446 34.62 37.7646 36.94C35.9246 39.26 33.1646 41.26 29.4846 42.94L24.9246 45.04C22.0846 46.36 20.0446 47.88 18.8046 49.6C17.5646 51.28 16.8846 53.2 16.7646 55.36ZM13.6446 96.4C9.80462 96.4 6.88462 95.5 4.88462 93.7C2.88461 91.86 1.92462 89.62 2.00462 86.98C2.08462 84.82 2.80462 82.8 4.16462 80.92C5.52462 79.04 7.42461 77.52 9.86461 76.36C12.3446 75.16 15.2846 74.56 18.6846 74.56C22.5246 74.56 25.3246 75.54 27.0846 77.5C28.8446 79.42 29.6846 81.82 29.6046 84.7C29.5646 86.82 28.8646 88.78 27.5046 90.58C26.1846 92.34 24.3246 93.76 21.9246 94.84C19.5646 95.88 16.8046 96.4 13.6446 96.4Z" fill="black" fill-opacity="0.2"/>
<path d="M103.942 48.92L104.482 45.5C104.562 42.9 104.222 40.94 103.462 39.62C102.662 38.34 101.302 37.7 99.3824 37.7C97.4624 37.7 95.8625 38.32 94.5825 39.56C93.2625 40.8 91.7625 42.86 90.0824 45.74L88.8224 48.86C88.3024 49.78 87.7624 50.6 87.2024 51.32C86.6424 52.08 85.6425 52.6 84.2025 52.88L81.3224 53.6C73.8024 55.24 67.9824 57.84 63.8624 61.4C59.7024 64.96 56.9224 69.52 55.5224 75.08C54.4024 79.48 54.5424 83.34 55.9424 86.66C57.3024 89.98 60.0024 92.58 64.0424 94.46C68.0424 96.34 73.5024 97.28 80.4224 97.28C86.4224 97.28 91.9624 96.28 97.0424 94.28C102.122 92.28 106.342 89.72 109.702 86.6C113.062 83.48 115.222 80.18 116.182 76.7C117.142 73.26 116.942 70.46 115.582 68.3C114.222 66.14 111.982 65.06 108.862 65.06C105.102 65.06 101.922 66.14 99.3224 68.3C96.6824 70.46 94.8224 73.56 93.7424 77.6L92.7224 81.68C92.1624 83.72 91.1224 85.28 89.6024 86.36C88.0424 87.44 86.1224 87.98 83.8424 87.98C82.2424 87.98 80.9424 87.52 79.9424 86.6C78.9024 85.72 78.2824 84.38 78.0824 82.58C77.8424 80.78 78.0824 78.5 78.8024 75.74C79.6824 72.46 81.0624 69.66 82.9425 67.34C84.7825 65.02 87.5424 63.02 91.2224 61.34L95.7824 59.24C98.6224 57.92 100.662 56.4 101.902 54.68C103.142 53 103.822 51.08 103.942 48.92ZM107.062 7.88002C110.902 7.88002 113.822 8.78002 115.822 10.58C117.822 12.42 118.782 14.66 118.702 17.3C118.622 19.46 117.902 21.48 116.542 23.36C115.182 25.24 113.282 26.76 110.842 27.92C108.362 29.12 105.422 29.72 102.022 29.72C98.1825 29.72 95.3825 28.74 93.6225 26.78C91.8625 24.86 91.0225 22.46 91.1025 19.58C91.1425 17.46 91.8425 15.5 93.2025 13.7C94.5225 11.94 96.3825 10.52 98.7825 9.44002C101.142 8.40002 103.902 7.88002 107.062 7.88002Z" fill="black" fill-opacity="0.2"/>
<path d="M15.4111 49.22L14.8711 52.64C14.7911 55.24 15.1311 57.2 15.8911 58.52C16.6911 59.8 18.0511 60.44 19.9711 60.44C21.8911 60.44 23.4911 59.82 24.7711 58.58C26.0911 57.34 27.5911 55.28 29.2711 52.4L30.5311 49.28C31.0511 48.36 31.5911 47.54 32.1511 46.82C32.7111 46.06 33.7111 45.54 35.1511 45.26L38.0311 44.54C45.5511 42.9 51.3711 40.3 55.4911 36.74C59.6511 33.18 62.4311 28.62 63.8311 23.06C64.9511 18.66 64.8111 14.8 63.4111 11.48C62.0511 8.15999 59.3511 5.55999 55.3111 3.67999C51.3111 1.79999 45.8511 0.859985 38.9311 0.859985C32.9311 0.859985 27.3911 1.85999 22.3111 3.85999C17.2311 5.85999 13.0111 8.41999 9.6511 11.54C6.2911 14.66 4.1311 17.96 3.1711 21.44C2.2111 24.88 2.4111 27.68 3.7711 29.84C5.1311 32 7.3711 33.08 10.4911 33.08C14.2511 33.08 17.4311 32 20.0311 29.84C22.6711 27.68 24.5311 24.58 25.6111 20.54L26.6311 16.46C27.1911 14.42 28.2311 12.86 29.7511 11.78C31.3111 10.7 33.2311 10.16 35.5111 10.16C37.1111 10.16 38.4111 10.62 39.4111 11.54C40.4511 12.42 41.0711 13.76 41.2711 15.56C41.5111 17.36 41.2711 19.64 40.5511 22.4C39.6711 25.68 38.2911 28.48 36.4111 30.8C34.5711 33.12 31.8111 35.12 28.1311 36.8L23.5711 38.9C20.7311 40.22 18.6911 41.74 17.4511 43.46C16.2111 45.14 15.5311 47.06 15.4111 49.22ZM12.2911 90.26C8.4511 90.26 5.5311 89.36 3.5311 87.56C1.5311 85.72 0.5711 83.48 0.6511 80.84C0.7311 78.68 1.4511 76.66 2.8111 74.78C4.1711 72.9 6.0711 71.38 8.5111 70.22C10.9911 69.02 13.9311 68.42 17.3311 68.42C21.1711 68.42 23.9711 69.4 25.7311 71.36C27.4911 73.28 28.3311 75.68 28.2511 78.56C28.2111 80.68 27.5111 82.64 26.1511 84.44C24.8311 86.2 22.9711 87.62 20.5711 88.7C18.2111 89.74 15.4511 90.26 12.2911 90.26Z" fill="#E26D5A"/>
<path d="M102.589 42.78L103.129 39.36C103.209 36.76 102.869 34.8 102.109 33.48C101.309 32.2 99.9489 31.56 98.0289 31.56C96.1089 31.56 94.5089 32.18 93.2289 33.42C91.9089 34.66 90.4089 36.72 88.7289 39.6L87.4689 42.72C86.9489 43.64 86.4089 44.46 85.8489 45.18C85.2889 45.94 84.2889 46.46 82.8489 46.74L79.9689 47.46C72.4489 49.1 66.6289 51.7 62.5089 55.26C58.3489 58.82 55.5689 63.38 54.1689 68.94C53.0489 73.34 53.1889 77.2 54.5889 80.52C55.9489 83.84 58.6489 86.44 62.6889 88.32C66.6889 90.2 72.1489 91.14 79.0689 91.14C85.0689 91.14 90.6089 90.14 95.6889 88.14C100.769 86.14 104.989 83.58 108.349 80.46C111.709 77.34 113.869 74.04 114.829 70.56C115.789 67.12 115.589 64.32 114.229 62.16C112.869 60 110.629 58.92 107.509 58.92C103.749 58.92 100.569 60 97.9689 62.16C95.3289 64.32 93.4689 67.42 92.3889 71.46L91.3689 75.54C90.8089 77.58 89.7689 79.14 88.2489 80.22C86.6889 81.3 84.7689 81.84 82.4889 81.84C80.8889 81.84 79.5889 81.38 78.5889 80.46C77.5489 79.58 76.9289 78.24 76.7289 76.44C76.4889 74.64 76.7289 72.36 77.4489 69.6C78.3289 66.32 79.7089 63.52 81.5889 61.2C83.4289 58.88 86.1889 56.88 89.8689 55.2L94.4289 53.1C97.2689 51.78 99.3089 50.26 100.549 48.54C101.789 46.86 102.469 44.94 102.589 42.78ZM105.709 1.74C109.549 1.74 112.469 2.64001 114.469 4.44001C116.469 6.28001 117.429 8.52001 117.349 11.16C117.269 13.32 116.549 15.34 115.189 17.22C113.829 19.1 111.929 20.62 109.489 21.78C107.009 22.98 104.069 23.58 100.669 23.58C96.8289 23.58 94.0289 22.6 92.2689 20.64C90.5089 18.72 89.6689 16.32 89.7489 13.44C89.7889 11.32 90.4889 9.36 91.8489 7.56C93.1689 5.8 95.0289 4.38001 97.4289 3.30001C99.7889 2.26001 102.549 1.74 105.709 1.74Z" fill="#E26D5A"/>
</svg>
