<svg width="140" height="148" viewBox="0 0 140 148" fill="none" xmlns="http://www.w3.org/2000/svg">
<g filter="url(#filter0_d)">
<path d="M26.4111 77.22L25.8711 80.64C25.7911 83.24 26.1311 85.2 26.8911 86.52C27.6911 87.8 29.0511 88.44 30.9711 88.44C32.8911 88.44 34.4911 87.82 35.7711 86.58C37.0911 85.34 38.5911 83.28 40.2711 80.4L41.5311 77.28C42.0511 76.36 42.5911 75.54 43.1511 74.82C43.7111 74.06 44.7111 73.54 46.1511 73.26L49.0311 72.54C56.5511 70.9 62.3711 68.3 66.4911 64.74C70.6511 61.18 73.4311 56.62 74.8311 51.06C75.9511 46.66 75.8111 42.8 74.4111 39.48C73.0511 36.16 70.3511 33.56 66.3111 31.68C62.3111 29.8 56.8511 28.86 49.9311 28.86C43.9311 28.86 38.3911 29.86 33.3111 31.86C28.2311 33.86 24.0111 36.42 20.6511 39.54C17.2911 42.66 15.1311 45.96 14.1711 49.44C13.2111 52.88 13.4111 55.68 14.7711 57.84C16.1311 60 18.3711 61.08 21.4911 61.08C25.2511 61.08 28.4311 60 31.0311 57.84C33.6711 55.68 35.5311 52.58 36.6111 48.54L37.6311 44.46C38.1911 42.42 39.2311 40.86 40.7511 39.78C42.3111 38.7 44.2311 38.16 46.5111 38.16C48.1111 38.16 49.4111 38.62 50.4111 39.54C51.4511 40.42 52.0711 41.76 52.2711 43.56C52.5111 45.36 52.2711 47.64 51.5511 50.4C50.6711 53.68 49.2911 56.48 47.4111 58.8C45.5711 61.12 42.8111 63.12 39.1311 64.8L34.5711 66.9C31.7311 68.22 29.6911 69.74 28.4511 71.46C27.2111 73.14 26.5311 75.06 26.4111 77.22ZM23.2911 118.26C19.4511 118.26 16.5311 117.36 14.5311 115.56C12.5311 113.72 11.5711 111.48 11.6511 108.84C11.7311 106.68 12.4511 104.66 13.8111 102.78C15.1711 100.9 17.0711 99.38 19.5111 98.22C21.9911 97.02 24.9311 96.42 28.3311 96.42C32.1711 96.42 34.9711 97.4 36.7311 99.36C38.4911 101.28 39.3311 103.68 39.2511 106.56C39.2111 108.68 38.5111 110.64 37.1511 112.44C35.8311 114.2 33.9711 115.62 31.5711 116.7C29.2111 117.74 26.4511 118.26 23.2911 118.26Z" fill="#FFF9F5"/>
</g>
<g filter="url(#filter1_d)">
<path d="M113.589 70.78L114.129 67.36C114.209 64.76 113.869 62.8 113.109 61.48C112.309 60.2 110.949 59.56 109.029 59.56C107.109 59.56 105.509 60.18 104.229 61.42C102.909 62.66 101.409 64.72 99.7289 67.6L98.4689 70.72C97.9489 71.64 97.4089 72.46 96.8489 73.18C96.2889 73.94 95.2889 74.46 93.8489 74.74L90.9689 75.46C83.4489 77.1 77.6289 79.7 73.5089 83.26C69.3489 86.82 66.5689 91.38 65.1689 96.94C64.0489 101.34 64.1889 105.2 65.5889 108.52C66.9489 111.84 69.6489 114.44 73.6889 116.32C77.6889 118.2 83.1489 119.14 90.0689 119.14C96.0689 119.14 101.609 118.14 106.689 116.14C111.769 114.14 115.989 111.58 119.349 108.46C122.709 105.34 124.869 102.04 125.829 98.56C126.789 95.12 126.589 92.32 125.229 90.16C123.869 88 121.629 86.92 118.509 86.92C114.749 86.92 111.569 88 108.969 90.16C106.329 92.32 104.469 95.42 103.389 99.46L102.369 103.54C101.809 105.58 100.769 107.14 99.2489 108.22C97.6889 109.3 95.7689 109.84 93.4889 109.84C91.8889 109.84 90.5889 109.38 89.5889 108.46C88.5489 107.58 87.9289 106.24 87.7289 104.44C87.4889 102.64 87.7289 100.36 88.4489 97.6C89.3289 94.32 90.7089 91.52 92.5889 89.2C94.4289 86.88 97.1889 84.88 100.869 83.2L105.429 81.1C108.269 79.78 110.309 78.26 111.549 76.54C112.789 74.86 113.469 72.94 113.589 70.78ZM116.709 29.74C120.549 29.74 123.469 30.64 125.469 32.44C127.469 34.28 128.429 36.52 128.349 39.16C128.269 41.32 127.549 43.34 126.189 45.22C124.829 47.1 122.929 48.62 120.489 49.78C118.009 50.98 115.069 51.58 111.669 51.58C107.829 51.58 105.029 50.6 103.269 48.64C101.509 46.72 100.669 44.32 100.749 41.44C100.789 39.32 101.489 37.36 102.849 35.56C104.169 33.8 106.029 32.38 108.429 31.3C110.789 30.26 113.549 29.74 116.709 29.74Z" fill="#FFF9F5"/>
</g>
<defs>
<filter id="filter0_d" x="11.6465" y="28.86" width="64.9313" height="95.4" filterUnits="userSpaceOnUse" color-interpolation-filters="sRGB">
<feFlood flood-opacity="0" result="BackgroundImageFix"/>
<feColorMatrix in="SourceAlpha" type="matrix" values="0 0 0 0 0 0 0 0 0 0 0 0 0 0 0 0 0 0 127 0" result="hardAlpha"/>
<feOffset dx="1" dy="6"/>
<feComposite in2="hardAlpha" operator="out"/>
<feColorMatrix type="matrix" values="0 0 0 0 0 0 0 0 0 0 0 0 0 0 0 0 0 0 0.3 0"/>
<feBlend mode="normal" in2="BackgroundImageFix" result="effect1_dropShadow"/>
<feBlend mode="normal" in="SourceGraphic" in2="effect1_dropShadow" result="shape"/>
</filter>
<filter id="filter1_d" x="64.4222" y="29.74" width="64.9313" height="95.4" filterUnits="userSpaceOnUse" color-interpolation-filters="sRGB">
<feFlood flood-opacity="0" result="BackgroundImageFix"/>
<feColorMatrix in="SourceAlpha" type="matrix" values="0 0 0 0 0 0 0 0 0 0 0 0 0 0 0 0 0 0 127 0" result="hardAlpha"/>
<feOffset dx="1" dy="6"/>
<feComposite in2="hardAlpha" operator="out"/>
<feColorMatrix type="matrix" values="0 0 0 0 0 0 0 0 0 0 0 0 0 0 0 0 0 0 0.3 0"/>
<feBlend mode="normal" in2="BackgroundImageFix" result="effect1_dropShadow"/>
<feBlend mode="normal" in="SourceGraphic" in2="effect1_dropShadow" result="shape"/>
</filter>
</defs>
</svg>
